# xmcd
# 
# Track frame offsets:
#     150
#     15311
#     31630
#     44228
#     61026
#     76386
#     90316
#     117987
#     131560
#     146590
#     161166
#     179355
# 
# Disc length: 2615
# 
# Revision: 0
# Processed by: cddbd v1.5.2PL0 Copyright (c) Steve Scherf et al.
# Submitted via: fre:ac v1.0.31
# 
DISCID=940a350c
DTITLE=Labordeta - Otra Vuelta de Tuerca
DYEAR=1988
DGENRE=Folk
TTITLE0=Aragon
TTITLE1=La vieja
TTITLE2=Banderas rotas
TTITLE3=Severino el sordo
TTITLE4=Regresare a la casa
TTITLE5=Somos
TTITLE6=Zarajota blues
TTITLE7=Me dicen que no quieres
TTITLE8=La albada
TTITLE9=Ya ves
TTITLE10=Quien te cerrara los ojos
TTITLE11=Canto a la libertad
EXTD=
EXTT0=
EXTT1=
EXTT2=
EXTT3=
EXTT4=
EXTT5=
EXTT6=
EXTT7=
EXTT8=
EXTT9=
EXTT10=
EXTT11=
PLAYORDER=
